<svg viewBox="170 170 870 305" fill="none" xmlns="http://www.w3.org/2000/svg">
<path d="M894.719 405.596V236.688H930.913V405.596H894.719Z" fill="#D60000"/>
<path d="M990.391 465.92V175.859H1026.59V465.92H990.391Z" fill="#D60000"/>
<path d="M175.836 379.783V262.485H254.833C275.754 262.485 284.792 271.534 284.792 290.637V317.615C284.792 331.524 277.26 339.064 263.369 339.064H218.849C214.498 339.064 211.987 341.41 211.987 345.767V379.783H175.836ZM211.987 314.934H241.109C245.795 314.934 248.473 313.091 248.473 308.232V293.318C248.473 288.626 245.795 286.615 241.109 286.615H211.987V314.934Z" fill="#D60000"/>
<path d="M295.641 379.783V262.485H373.634C393.551 262.485 404.597 271.534 404.597 289.967V305.215C404.597 314.599 399.576 321.302 391.542 323.983C399.408 326.664 402.923 332.529 402.923 341.578V379.783H366.604V342.415C366.604 337.891 364.094 335.378 359.742 335.378H331.792V379.783H295.641ZM331.792 311.248H362.253C366.102 311.248 368.446 309.069 368.446 305.048V292.815C368.446 288.794 366.102 286.615 362.253 286.615H331.792V311.248Z" fill="#D60000"/>
<path d="M448.382 380.956C426.624 380.956 415.578 369.897 415.578 349.788V283.264C415.578 269.188 423.444 261.312 437.67 261.312H493.571C515.329 261.312 526.375 272.372 526.375 292.48V359.005C526.375 373.08 518.509 380.956 504.45 380.956H448.382ZM459.261 356.324H482.692C487.378 356.324 490.056 354.145 490.056 349.453V292.815C490.056 288.123 487.378 285.945 482.692 285.945H459.261C454.574 285.945 451.896 288.123 451.896 292.815V349.453C451.896 354.145 454.574 356.324 459.261 356.324Z" fill="#D60000"/>
<path d="M539.827 379.783V262.485H632.046V286.615H582.338C578.321 286.615 575.978 288.626 575.978 292.648V307.059H606.104V331.188H575.978V349.453C575.978 353.475 578.321 355.653 582.338 355.653H632.046V379.783H539.827Z" fill="#D60000"/>
<path d="M642.96 379.783V262.485H679.112V348.28C679.112 352.637 681.622 355.151 685.974 355.151H733.506V379.783H642.96Z" fill="#D60000"/>
<path d="M742.662 379.783V262.485H834.881V286.615H785.173C781.156 286.615 778.813 288.626 778.813 292.648V307.059H808.939V331.188H778.813V349.453C778.813 353.475 781.156 355.653 785.173 355.653H834.881V379.783H742.662Z" fill="#D60000"/>
</svg>
